<svg width="32" height="32" viewBox="0 0 32 32" fill="none" xmlns="http://www.w3.org/2000/svg">
<path d="M16 2.66667C8.63604 2.66667 2.66667 8.63604 2.66667 16C2.66667 23.364 8.63604 29.3333 16 29.3333C23.364 29.3333 29.3333 23.364 29.3333 16C29.3333 8.63604 23.364 2.66667 16 2.66667ZM16 26.6667C10.1093 26.6667 5.33333 21.8907 5.33333 16C5.33333 10.1093 10.1093 5.33333 16 5.33333C21.8907 5.33333 26.6667 10.1093 26.6667 16C26.6667 21.8907 21.8907 26.6667 16 26.6667Z" fill="#4A90E2"/>
<path d="M21.3333 12H12V21.3333H21.3333V12Z" fill="#4CAF50"/>
<path d="M10.6667 10.6667H18.6667V18.6667H10.6667V10.6667Z" fill="#FF9800"/>
</svg>
